<?xml version="1.0" encoding="UTF-8"?>
<!-- Generated by Pixelmator Pro 2.3.8 -->
<svg width="400" height="127" viewBox="0 0 400 127" xmlns="http://www.w3.org/2000/svg" xmlns:xlink="http://www.w3.org/1999/xlink">
    <g id="Gruppo">
        <g id="g1">
            <path id="Percorso" fill="#ffffff" stroke="none" d="M 85.675003 104.498001 C 81.661003 104.498001 78.338997 107.889 78.338997 112.111 C 78.338997 116.332001 81.592003 119.723 85.675003 119.723 C 89.689003 119.723 93.010002 116.333 93.010002 112.111 C 93.010002 107.889 89.758003 104.498001 85.675003 104.498001 Z M 85.675003 116.125 C 83.598999 116.125 81.938004 114.324997 81.938004 112.111 C 81.938004 109.895996 83.598 108.097 85.675003 108.097 C 87.750999 108.097 89.412003 109.897003 89.412003 112.111 C 89.481003 114.324997 87.750999 116.125 85.675003 116.125 Z M 39.653999 104.914001 L 36.955002 104.914001 C 36.747002 104.914001 36.471001 105.121002 36.401001 105.329002 L 34.187 112.319 L 30.381001 104.844002 C 30.236324 104.640411 30.007298 104.513214 29.757999 104.498001 L 29.481001 104.498001 C 29.231703 104.513214 29.002676 104.640411 28.858 104.844002 L 25.052 112.318001 L 22.837 105.328003 C 22.768 105.121002 22.490999 104.914001 22.284 104.914001 L 19.584 104.914001 C 19.239 104.914001 19.031 105.190002 19.17 105.535995 L 23.599001 119.377998 C 23.667999 119.585999 23.945 119.793999 24.152 119.793999 L 24.566999 119.793999 C 24.816298 119.778786 25.045324 119.651588 25.190001 119.447998 L 29.688999 110.657997 L 34.187 119.447998 C 34.331676 119.651588 34.560703 119.778786 34.810001 119.793999 L 35.224998 119.793999 C 35.432999 119.793999 35.709 119.585999 35.778999 119.377998 L 40.208 105.538002 C 40.208 105.191002 40 104.915001 39.653999 104.915001 Z M 46.021 104.914001 L 43.320999 104.914001 C 43.155872 104.913467 42.997353 104.978828 42.880592 105.095589 C 42.763828 105.212357 42.698467 105.370872 42.699001 105.535995 L 42.699001 118.685997 C 42.698463 118.851303 42.763962 119.009972 42.880943 119.126762 C 42.997925 119.243561 43.1567 119.3088 43.321999 119.307999 L 46.021 119.307999 C 46.186474 119.3088 46.345406 119.243423 46.462414 119.126411 C 46.579422 119.009407 46.644802 118.850471 46.644001 118.684998 L 46.644001 105.535995 C 46.644535 105.370697 46.579037 105.212029 46.462059 105.09523 C 46.345078 104.978439 46.186302 104.9132 46.021 104.914001 Z M 57.924 104.498001 C 56.055 104.498001 54.325001 105.328003 53.080002 106.643997 L 52.595001 105.329002 C 52.526001 105.121002 52.249001 104.914001 52.042 104.914001 L 50.796001 104.914001 C 50.630699 104.9132 50.471924 104.978439 50.354942 105.09523 C 50.237961 105.212029 50.172466 105.370697 50.173 105.535995 L 50.173 126.297997 C 50.172199 126.463478 50.237576 126.622406 50.354588 126.73941 C 50.471596 126.856422 50.630524 126.921806 50.796001 126.920998 L 53.494999 126.920998 C 53.660473 126.921806 53.819405 126.856422 53.936413 126.73941 C 54.053425 126.622406 54.118801 126.463478 54.118 126.297997 L 54.118 119.099998 C 55.293999 119.515999 56.540001 119.723 57.855 119.723 C 61.660999 119.723 64.775002 116.333 64.775002 112.111 C 64.845001 107.889 61.73 104.498001 57.924 104.498001 Z M 57.162998 116.125 C 56.055 116.125 54.948002 115.848 54.118 115.294998 L 54.118 109.826996 C 54.736095 108.723701 55.898399 108.036621 57.162998 108.027 C 59.169998 108.027 60.830002 109.826996 60.830002 112.042 C 60.830002 114.324997 59.169998 116.125 57.162998 116.125 Z M 74.878998 104.498001 C 72.249001 104.498001 70.726997 106.643997 70.726997 106.643997 L 70.241997 105.329002 C 70.172997 105.121002 69.896004 104.914001 69.689003 104.914001 L 68.443001 104.914001 C 68.277702 104.9132 68.118927 104.978439 68.001945 105.09523 C 67.884964 105.212029 67.819466 105.370697 67.82 105.535995 L 67.82 118.685997 C 67.819466 118.851303 67.884964 119.009972 68.001945 119.126762 C 68.118927 119.243561 68.277702 119.3088 68.443001 119.307999 L 71.141998 119.307999 C 71.307472 119.3088 71.4664 119.243423 71.583412 119.126411 C 71.700424 119.009407 71.7658 118.850471 71.764999 118.684998 L 71.764999 109.481003 C 73.356003 107.542999 75.362999 108.166 75.778999 108.374001 C 76.194 108.512001 76.471001 108.304001 76.609001 108.028 C 76.747002 107.750999 77.301003 106.366997 77.578003 105.882004 C 77.785004 105.398003 77.439003 104.498001 74.877998 104.498001 Z M 45.189999 98.132004 C 44.014 97.785995 42.837002 98.546997 42.491001 99.723 C 42.145 100.900002 42.907001 102.145004 44.014 102.423004 C 45.189999 102.767998 46.367001 102.007004 46.713001 100.831001 C 47.058998 99.653999 46.367001 98.477997 45.189999 98.130997 Z"/>
            <path id="path1" fill="#ffffff" stroke="none" d="M 13.287 119.237999 C 13.045424 119.360909 12.789915 119.454247 12.526 119.515999 C 12.249 119.584999 12.042 119.584999 11.696 119.584999 C 11.073 119.584999 10.519 119.376999 10.173 118.961998 C 9.818854 118.53344 9.623205 117.995934 9.619 117.440002 L 9.55 117.440002 C 9.105086 118.183037 8.456929 118.78331 7.682 119.169998 C 6.852 119.584999 5.952 119.792999 4.913 119.792999 C 4.083 119.792999 3.391 119.653999 2.768 119.376999 C 2.145 119.099998 1.799 118.753998 1.384 118.338997 C 0.969 117.924004 0.692 117.439003 0.484 116.886002 C 0.291996 116.377602 0.198335 115.837357 0.208 115.293999 C 0.208 114.809998 0.277 114.324997 0.415 113.841003 C 0.554 113.357002 0.83 112.872002 1.245 112.457001 C 1.661 112.042 2.145 111.695999 2.768 111.349998 C 3.391 111.072998 4.221 110.864998 5.19 110.795998 L 9.481 110.518997 L 9.481 109.481003 C 9.481 109.135002 9.411 108.720001 9.343 108.374001 C 9.275311 107.961212 9.052444 107.58989 8.72 107.335999 C 8.443 107.127998 8.166 106.920998 7.82 106.781998 C 7.474 106.643997 6.99 106.574997 6.367 106.574997 C 5.744 106.574997 5.19 106.643997 4.775 106.781998 C 4.36 106.920998 4.014 107.127998 3.806 107.404999 C 3.322 107.889 3.114 108.443001 3.114 109.135002 L 0.83 109.135002 C 0.83 108.443001 0.969 107.889 1.176 107.404999 C 1.384 106.920998 1.661 106.504997 2.076 106.089996 C 2.605235 105.565704 3.243308 105.164215 3.945 104.914001 C 4.744544 104.630447 5.587706 104.489639 6.436 104.498001 C 7.82 104.498001 8.927 104.775002 9.758 105.260002 C 10.588 105.813004 11.142 106.435997 11.488 107.266998 C 11.765 107.959 11.903 108.651001 11.903 109.481003 L 11.903 116.471001 C 11.903 116.817001 11.973 117.094002 12.111 117.232002 C 12.261269 117.370613 12.459631 117.445221 12.664 117.440002 L 13.08 117.440002 L 13.287 117.370003 L 13.287 119.238998 Z M 9.55 112.388 L 5.744 112.595001 C 5.398 112.595001 5.052 112.665001 4.637 112.803001 C 4.291 112.941002 3.945 113.080002 3.599 113.287003 C 3.311514 113.50515 3.055148 113.761513 2.837 114.049004 C 2.63 114.394997 2.561 114.740997 2.561 115.224998 C 2.561 115.848 2.768 116.471001 3.183 116.955002 C 3.599 117.440002 4.36 117.716003 5.329 117.716003 C 5.872023 117.72554 6.411918 117.631882 6.92 117.440002 C 7.405 117.232002 7.89 116.955002 8.235 116.540001 C 8.651 116.125 8.997 115.570999 9.135 115.016998 C 9.343 114.463997 9.412 113.841003 9.412 113.287003 L 9.412 112.387001 L 9.55 112.387001 Z M 110.864998 114.532997 C 110.794998 115.293999 110.656998 115.986 110.380997 116.609001 C 110.074883 117.198296 109.677658 117.735573 109.204002 118.200996 C 108.720001 118.684998 108.097 119.100998 107.403999 119.376999 C 106.712997 119.653999 105.952003 119.792999 105.052002 119.792999 C 103.737 119.792999 102.698997 119.515999 101.869003 119.030998 C 101.039001 118.477997 100.346001 117.855003 99.862 117.094002 C 99.454544 116.453354 99.150803 115.752388 98.961998 115.016998 C 98.753998 114.186996 98.684998 113.287003 98.684998 112.18 C 98.684998 111.072998 98.754997 110.173004 98.961998 109.343002 C 99.169998 108.513 99.445999 107.889 99.862 107.266998 C 100.346001 106.504997 101.038002 105.882004 101.869003 105.329002 C 102.698997 104.775002 103.737 104.568001 105.052002 104.568001 C 105.882004 104.568001 106.643997 104.706001 107.335999 104.983002 C 108.028 105.260002 108.581001 105.606003 109.066002 106.089996 C 109.539307 106.555496 109.936188 107.092773 110.241997 107.681999 C 110.518997 108.305 110.726997 108.997002 110.795998 109.757996 L 108.374001 109.757996 C 108.304001 109.274002 108.166 108.858002 108.028 108.443001 C 107.82 108.097 107.612 107.750999 107.335999 107.473999 C 107.043701 107.187729 106.68811 106.974304 106.297997 106.850998 C 105.874176 106.709579 105.429779 106.639626 104.983002 106.643997 C 104.429001 106.643997 103.945 106.712997 103.598999 106.920998 C 103.182999 107.127998 102.836998 107.335999 102.560997 107.612999 C 101.98597 108.11702 101.595963 108.798828 101.453003 109.550003 C 101.246002 110.379997 101.176003 111.210999 101.176003 112.110001 C 101.176003 113.010002 101.246002 113.841003 101.453003 114.670998 C 101.661003 115.500999 102.007004 116.125 102.560997 116.609001 C 102.906998 116.886002 103.252998 117.094002 103.598999 117.301003 C 104.014 117.509003 104.429001 117.578003 104.983002 117.578003 C 105.467003 117.578003 105.952003 117.508003 106.366997 117.301003 C 106.781998 117.094002 107.127998 116.886002 107.404999 116.609001 C 107.681999 116.332001 107.889 116.056 108.028 115.709 C 108.166 115.362999 108.304001 114.948997 108.374001 114.463997 L 110.864998 114.463997 L 110.864998 114.532997 Z M 124.014 112.18 C 124.014 113.287003 123.875 114.394997 123.598999 115.362999 C 123.321999 116.402 122.768997 117.232002 122.007004 118.063004 C 121.453003 118.546997 120.830002 118.962997 120.138 119.307999 C 119.36866 119.621574 118.546761 119.786156 117.716003 119.792999 C 116.816002 119.792999 115.986 119.653999 115.293999 119.307999 C 114.592674 119.02478 113.956909 118.600708 113.426003 118.061996 C 112.664001 117.302002 112.111 116.402 111.834 115.362999 C 111.555771 114.324974 111.416222 113.254669 111.418999 112.18 C 111.418999 111.072998 111.556999 109.966003 111.834 108.997002 C 112.111 107.959 112.664001 107.127998 113.426003 106.296997 C 113.99292 105.803894 114.620697 105.385483 115.293999 105.052002 C 116.063408 104.73877 116.885307 104.574524 117.716003 104.568001 C 118.615997 104.568001 119.445999 104.706001 120.138 105.052002 C 120.839684 105.335098 121.4758 105.759178 122.007004 106.298004 C 122.767998 107.058998 123.321999 107.958 123.598999 108.997002 C 123.875 109.966003 124.014 111.003998 124.014 112.18 Z M 121.592003 112.18 C 121.592003 111.349998 121.522003 110.520004 121.315002 109.688995 C 121.140251 108.944473 120.783607 108.25489 120.277 107.681999 C 120 107.404999 119.584999 107.127998 119.169998 106.920998 C 118.753998 106.712997 118.269997 106.643997 117.716003 106.643997 C 117.163002 106.643997 116.678001 106.712997 116.263 106.920998 C 115.848 107.127998 115.501999 107.335999 115.155998 107.681 C 114.649246 108.254181 114.292595 108.944115 114.117996 109.688995 C 113.910004 110.518997 113.841003 111.279999 113.841003 112.18 C 113.841003 113.010002 113.910004 113.841003 114.117996 114.670998 C 114.324997 115.500999 114.670998 116.125 115.155998 116.678001 C 115.432999 116.955002 115.848 117.232002 116.263 117.440002 C 116.678001 117.647003 117.163002 117.716003 117.716003 117.716003 C 118.269997 117.716003 118.753998 117.647003 119.169998 117.440002 C 119.584999 117.232002 119.93 117.024002 120.277 116.678001 C 120.783607 116.10511 121.140251 115.415527 121.315002 114.670998 C 121.522003 113.841003 121.592003 113.011002 121.592003 112.181 Z M 143.251999 119.376999 L 143.251999 110.241997 C 143.251999 109.757996 143.182999 109.274002 143.113998 108.858002 C 143.044998 108.443001 142.837006 108.097 142.630005 107.82 C 142.421997 107.542999 142.145004 107.266998 141.729996 107.127998 C 141.290253 106.949249 140.820663 106.855263 140.345993 106.850998 C 139.931 106.850998 139.516006 106.920998 139.169998 107.127998 C 138.824005 107.266998 138.477997 107.542999 138.199997 107.82 C 137.706848 108.311386 137.370056 108.937653 137.231995 109.619995 C 137.090958 110.326225 137.021271 111.044838 137.024002 111.764999 L 137.024002 119.446999 L 134.602005 119.446999 L 134.602005 110.311996 C 134.602005 109.826996 134.531998 109.341995 134.464005 108.927002 C 134.393997 108.512001 134.255997 108.167 133.979004 107.889 C 133.772003 107.612999 133.494995 107.335999 133.078995 107.196999 C 132.639496 107.018707 132.170273 106.925064 131.695999 106.920998 C 131.213943 106.928818 130.740097 107.047195 130.311005 107.266998 C 129.895996 107.473999 129.550995 107.82 129.272995 108.167 C 128.897263 108.681763 128.637939 109.272064 128.513 109.897003 C 128.378738 110.53405 128.308716 111.182968 128.304001 111.834 L 128.304001 119.515999 L 125.952003 119.515999 L 125.952003 105.121002 L 128.028 105.121002 L 128.235001 107.196999 C 128.580994 106.366997 129.134995 105.744003 129.895996 105.398003 C 130.656998 104.983002 131.419006 104.775002 132.248993 104.775002 C 133.287003 104.775002 134.186996 104.983002 134.949005 105.466995 C 135.658691 105.971596 136.210159 106.667694 136.539001 107.473999 C 136.746994 106.989998 136.955002 106.643997 137.300995 106.298004 C 137.578003 105.951996 137.992996 105.675003 138.339005 105.468002 C 138.753998 105.260002 139.169006 105.052002 139.585007 104.983002 C 140 104.844002 140.485001 104.844002 140.899994 104.844002 C 142.490997 104.844002 143.737 105.329002 144.498001 106.298004 C 145.259995 107.266998 145.675003 108.512001 145.675003 110.173004 L 145.675003 119.653999 L 143.253006 119.653999 L 143.253006 119.377998 Z M 160.968994 112.18 C 160.970566 113.355537 160.783524 114.52372 160.414993 115.639999 C 160.069 116.678001 159.514999 117.578003 158.824005 118.269997 C 158.323853 118.695053 157.764267 119.044746 157.162994 119.307999 C 156.539993 119.584999 155.779007 119.723 154.947998 119.723 C 154.533005 119.723 154.186996 119.653999 153.772003 119.584999 C 153.356003 119.514999 153.009995 119.376999 152.595001 119.169998 C 152.248993 119.030998 151.903 118.753998 151.557007 118.546997 C 151.279999 118.269997 151.003006 117.993004 150.796005 117.647003 L 150.796005 125.467003 L 148.373993 125.467003 L 148.373993 104.914001 L 150.449997 104.914001 L 150.587997 106.781998 C 151.003006 106.089996 151.626007 105.535995 152.388 105.122002 C 153.218002 104.706001 153.979004 104.568001 154.809998 104.568001 C 155.710007 104.568001 156.470001 104.706001 157.162994 104.983002 C 157.854996 105.260002 158.408005 105.675003 158.893005 106.158997 C 159.585007 106.850998 160.069 107.750999 160.414993 108.789001 C 160.761002 109.826996 160.968994 110.933998 160.968994 112.18 Z M 158.546997 112.18 C 158.546997 111.487999 158.477005 110.864998 158.339005 110.173004 C 158.204651 109.550079 157.995453 108.945694 157.716003 108.373001 C 157.438995 107.82 157.024002 107.404999 156.470993 107.058998 C 155.917007 106.712997 155.294006 106.574997 154.533005 106.574997 C 153.979004 106.574997 153.563995 106.643997 153.218002 106.850998 C 152.871994 107.058998 152.526001 107.266998 152.248993 107.542999 C 151.626007 108.097 151.210999 108.720001 151.003006 109.550003 C 150.796005 110.379997 150.656998 111.210999 150.656998 112.110001 C 150.656998 113.010002 150.796005 113.910004 151.003006 114.670998 C 151.210999 115.500999 151.626007 116.125 152.248993 116.678001 C 152.526001 116.955002 152.871994 117.163002 153.218002 117.370003 C 153.563995 117.578003 154.048004 117.647003 154.533005 117.647003 C 155.294006 117.647003 155.985992 117.509003 156.470993 117.163002 C 157.024002 116.817001 157.438995 116.402 157.716003 115.917 C 158.006012 115.34874 158.215683 114.74295 158.339005 114.116997 C 158.480179 113.481079 158.549957 112.83139 158.546997 112.18 Z M 174.740005 119.238998 C 174.498703 119.361488 174.24353 119.454491 173.979996 119.515999 C 173.701996 119.584999 173.494995 119.584999 173.149002 119.584999 C 172.526001 119.584999 171.972 119.376999 171.626007 118.961998 C 171.272217 118.533302 171.07692 117.995811 171.072998 117.440002 L 171.003006 117.440002 C 170.55809 118.183037 169.909927 118.78331 169.134995 119.169998 C 168.304993 119.584999 167.404999 119.792999 166.367004 119.792999 C 165.537003 119.792999 164.843994 119.653999 164.220993 119.376999 C 163.652954 119.129707 163.136612 118.777557 162.699005 118.338997 C 162.283997 117.924004 162.007004 117.439003 161.798996 116.886002 C 161.606659 116.37767 161.51265 115.837425 161.522003 115.293999 C 161.522003 114.809998 161.591995 114.324997 161.729996 113.841003 C 161.869003 113.357002 162.145004 112.872002 162.559998 112.457001 C 162.975998 112.042 163.460007 111.695999 164.082993 111.349998 C 164.705994 111.072998 165.535995 110.864998 166.505005 110.795998 L 170.794998 110.518997 L 170.794998 109.481003 C 170.794998 109.135002 170.727005 108.720001 170.656998 108.374001 C 170.589569 107.961365 170.367065 107.590057 170.035004 107.335999 C 169.757996 107.127998 169.481003 106.920998 169.134995 106.781998 C 168.789001 106.643997 168.304993 106.574997 167.682007 106.574997 C 167.059006 106.574997 166.505005 106.643997 166.089996 106.781998 C 165.675003 106.920998 165.328995 107.127998 165.121002 107.404999 C 164.636993 107.889 164.429001 108.443001 164.429001 109.135002 L 162.076004 109.135002 C 162.076004 108.443001 162.214996 107.889 162.421997 107.404999 C 162.630005 106.920998 162.906998 106.504997 163.322006 106.089996 C 163.850952 105.565826 164.488663 105.164345 165.190002 104.914001 C 165.989853 104.630325 166.833374 104.489517 167.682007 104.498001 C 169.065994 104.498001 170.173004 104.775002 171.003006 105.260002 C 171.832993 105.813004 172.388 106.435997 172.733002 107.266998 C 173.009995 107.959 173.149002 108.651001 173.149002 109.481003 L 173.149002 116.471001 C 173.149002 116.817001 173.218002 117.094002 173.356003 117.232002 C 173.506516 117.370857 173.705292 117.44548 173.910004 117.440002 L 174.324997 117.440002 L 174.533005 117.370003 L 174.533005 119.238998 L 174.740005 119.238998 Z M 171.003006 112.388 L 167.197006 112.595001 C 166.850998 112.595001 166.505005 112.665001 166.089996 112.803001 C 165.744003 112.941002 165.397995 113.080002 165.052002 113.287003 C 164.764862 113.505219 164.508835 113.761581 164.291 114.049004 C 164.082993 114.394997 164.014008 114.740997 164.014008 115.224998 C 164.014008 115.848 164.220993 116.471001 164.636993 116.955002 C 165.052002 117.440002 165.813004 117.716003 166.781998 117.716003 C 167.325363 117.725662 167.865601 117.632004 168.373993 117.440002 C 168.858002 117.232002 169.343002 116.955002 169.688995 116.540001 C 170.104004 116.125 170.449005 115.570999 170.589005 115.016998 C 170.796005 114.463997 170.865005 113.841003 170.865005 113.287003 L 170.865005 112.387001 L 171.003006 112.387001 Z M 185.397995 119.377998 L 185.397995 110.241997 C 185.397995 109.135002 185.190002 108.305 184.705994 107.681999 C 184.220993 107.058998 183.460007 106.781998 182.283997 106.781998 C 181.591995 106.781998 180.968994 106.989998 180.483994 107.404999 C 179.939606 107.820381 179.510925 108.368538 179.238998 108.997002 C 178.956085 109.553864 178.813614 110.171471 178.824005 110.795998 C 178.753998 111.487999 178.753998 112.111 178.753998 112.665001 L 178.753998 119.376999 L 176.332001 119.376999 L 176.332001 104.983002 L 178.408005 104.983002 L 178.615997 107.127998 C 178.824005 106.712997 179.031006 106.366997 179.376999 106.020996 C 179.723007 105.675003 180.069 105.466995 180.414993 105.260002 C 180.830002 105.052002 181.244995 104.914001 181.660995 104.775002 C 182.076004 104.637001 182.490997 104.637001 182.906998 104.637001 C 184.567001 104.637001 185.744003 105.121002 186.574005 106.020996 C 187.404007 106.920998 187.820007 108.235001 187.820007 109.895996 L 187.820007 119.377998 L 185.397995 119.377998 Z M 194.947998 122.283997 C 194.602005 123.183998 194.117996 123.944 193.563995 124.498001 C 193.009995 125.052002 192.179993 125.328003 191.072998 125.328003 C 190.449997 125.328003 189.964996 125.260002 189.619003 125.190002 C 189.272995 125.121002 188.996994 125.052002 188.927002 124.983002 L 188.927002 122.837997 C 189.065994 122.906998 189.272995 122.906998 189.412003 122.975998 C 189.550003 123.045998 189.757996 123.045998 189.964996 123.045998 L 190.656998 123.045998 C 191.118057 123.0467 191.57132 122.927094 191.972 122.698997 C 192.317993 122.490997 192.595001 122.144997 192.802002 121.592003 L 193.701996 119.169998 L 188.028 104.775002 L 190.727005 104.775002 L 194.947998 116.125 L 198.962006 104.775002 L 201.453003 104.775002 L 194.947998 122.283997 Z"/>
        </g>
        <path id="path2" fill="#ffffff" stroke="none" d="M 16.055 14.532997 L 16.055 66.297997 L 31.42 66.297997 C 39.240002 66.297997 44.707001 62.421997 47.820999 54.740005 C 49.481998 50.518997 50.312 45.466995 50.312 39.584999 C 50.312 31.487999 49.067001 25.329002 46.506001 20.969002 C 43.945999 16.679001 38.963001 14.532997 31.42 14.532997 L 16.055 14.532997 Z M 46.436001 2.559998 C 52.042 4.360001 56.540001 7.75 59.931 12.595001 C 62.642857 16.449844 64.57103 20.799866 65.606003 25.398003 C 66.573997 29.964996 67.127998 34.324997 67.127998 38.546997 C 67.127998 49.066002 64.983002 57.992996 60.761002 65.260002 C 55.016998 75.155998 46.159 80.07 34.187 80.07 L 0 80.07 L 0 0.830002 L 34.187 0.830002 C 39.099998 0.900002 43.182999 1.453003 46.436001 2.559998 Z M 89.273003 35.847 C 87.127998 37.992004 85.742996 40.966995 85.190002 44.705002 L 111.487999 44.705002 C 111.210999 40.759995 109.827003 37.714996 107.404999 35.639 C 104.983002 33.563004 101.938004 32.525002 98.338997 32.525002 C 94.463997 32.595001 91.418999 33.632004 89.273003 35.847 M 112.18 22.559998 C 116.263 24.359001 119.653999 27.264999 122.283997 31.209999 C 124.706001 34.669998 126.227997 38.752998 126.919998 43.32 C 127.335999 46.020004 127.542999 49.826004 127.404999 54.946999 L 84.845001 54.946999 C 85.121002 60.899002 87.127998 64.982002 90.934998 67.403999 C 93.287003 68.857002 96.055 69.617996 99.307999 69.617996 C 102.767998 69.617996 105.606003 68.788002 107.82 66.987999 C 109.620003 65.466003 110.035004 64.705002 110.933998 61.451996 L 126.573997 61.451996 C 126.158997 66.503998 124.291 69.963997 120.900002 73.563004 C 115.639999 79.237999 108.374001 82.074997 98.892998 82.074997 C 91.141998 82.074997 84.221001 79.653 78.338997 74.877998 C 72.388 70.102997 69.412003 62.214005 69.412003 51.417999 C 69.412003 41.244995 72.042 33.494003 77.439003 28.027 C 82.836998 22.628998 89.827003 19.93 98.338997 19.93 C 103.459999 19.791 108.097 20.760002 112.179001 22.559998 M 143.875 61.382996 C 144.220993 64.082001 144.912994 66.019997 145.951996 67.195999 C 147.889008 69.203003 151.419006 70.240997 156.539993 70.240997 C 159.585007 70.240997 161.938004 69.825996 163.737 68.926003 C 165.537003 68.026001 166.436005 66.711998 166.436005 64.912003 C 166.436005 63.181999 165.744003 61.867996 164.291 60.968002 C 162.837006 60.068001 157.509003 58.546005 148.304001 56.331001 C 141.660995 54.671005 136.955002 52.594002 134.255997 50.171997 C 131.488007 47.75 130.173004 44.220001 130.173004 39.653 C 130.173004 34.255005 132.317993 29.617996 136.539993 25.673004 C 140.761002 21.798004 146.781998 19.861 154.464005 19.861 C 161.729996 19.861 167.682007 21.313995 172.317993 24.221001 C 176.955002 27.126999 179.585007 32.179001 180.276993 39.375999 L 164.983002 39.375999 C 164.774994 37.438004 164.220993 35.846001 163.322006 34.669998 C 161.591995 32.594002 158.753998 31.556 154.671997 31.556 C 151.348999 31.556 148.927002 32.041 147.473999 33.147995 C 146.089996 34.186005 145.328995 35.362 145.328995 36.816002 C 145.328995 38.615005 146.089996 39.861 147.612 40.622002 C 149.134995 41.451996 154.464005 42.835999 163.598999 44.843002 C 169.688995 46.296997 174.324997 48.442001 177.300995 51.348 C 180.345993 54.255005 181.798996 57.923004 181.798996 62.352005 C 181.798996 68.165001 179.654007 72.871002 175.363007 76.539001 C 171.003006 80.207001 164.360001 82.005997 155.294006 82.005997 C 146.089996 82.005997 139.307999 80.068001 134.878998 76.193001 C 130.518997 72.317001 128.304001 67.334999 128.304001 61.382996 L 143.875 61.382996 Z M 241.938004 63.459 C 244.360001 60.759995 245.606003 56.469002 245.606003 50.518005 C 245.606003 44.981995 244.429001 40.691002 242.076004 37.783997 C 239.723007 34.877998 236.677994 33.423996 232.733994 33.423996 C 227.404007 33.423996 223.737 35.916 221.729996 40.968002 C 220.692001 43.667 220.138 46.987999 220.138 50.932999 C 220.138 54.324005 220.692001 57.369003 221.867996 60.068001 C 223.875 64.982002 227.612 67.473 232.940994 67.473 C 236.470993 67.542999 239.445999 66.157997 241.938004 63.459 M 236.748001 21.382996 C 240.483994 22.905998 243.460007 25.742996 245.744003 29.826004 L 245.744003 21.382996 L 260.760986 21.382996 L 260.760986 76.954002 C 260.760986 84.497002 259.515991 90.240997 256.954987 94.046997 C 252.595001 100.691002 244.220993 103.944 231.834 103.944 C 224.360001 103.944 218.270004 102.489998 213.563995 99.514 C 208.858002 96.608002 206.227997 92.179001 205.744003 86.365997 L 222.421997 86.365997 C 222.837006 88.166 223.529007 89.411003 224.498001 90.240997 C 226.158997 91.625 228.927994 92.317001 232.802994 92.317001 C 238.270004 92.317001 242.007004 90.448997 243.875 86.780998 C 245.121002 84.428001 245.744003 80.483002 245.744003 74.946999 L 245.744003 71.209999 C 244.291 73.700996 242.699005 75.57 240.968994 76.816002 C 237.923996 79.168999 233.979004 80.276001 229.134995 80.276001 C 221.591995 80.276001 215.639999 77.646004 211.141998 72.386002 C 206.643997 67.126999 204.429001 59.93 204.429001 50.932999 C 204.429001 42.212997 206.574005 34.946999 210.934006 28.996002 C 215.223999 23.043999 221.384003 20.137001 229.274002 20.137001 C 232.042007 20.068001 234.602005 20.553001 236.746994 21.382996 M 312.734009 24.843002 C 316.540009 28.027 318.477997 33.285995 318.477997 40.622002 L 318.477997 80 L 302.768005 80 L 302.768005 44.43 C 302.768005 41.384003 302.352997 38.962006 301.522003 37.369995 C 300 34.393997 297.161987 32.872002 292.941986 32.872002 C 287.751007 32.872002 284.290985 35.016998 282.35199 39.445999 C 281.315002 41.798996 280.829987 44.776001 280.829987 48.374001 L 280.829987 80.069 L 265.536011 80.069 L 265.536011 21.522003 L 280.276001 21.522003 L 280.276001 30.104004 C 282.214996 27.058998 284.083008 24.914001 285.812988 23.598999 C 288.927002 21.246002 292.94101 20.069 297.785004 20.069 C 304.014008 20.069 308.927002 21.660995 312.734009 24.844002 M 324.083008 22.007004 L 339.653992 22.007004 L 339.653992 80 L 324.083008 80 L 324.083008 22.007004 Z M 339.584991 14.532997 L 324.083008 14.532997 L 324.083008 0.415001 L 339.584991 0.415001 L 339.584991 14.532997 Z M 185.466995 22.007004 L 200.968994 22.007004 L 200.968994 80 L 185.466995 80 L 185.466995 22.007004 Z M 200.968994 14.532997 L 185.466995 14.532997 L 185.466995 0.415001 L 200.968994 0.415001 L 200.968994 14.532997 Z M 344.083008 32.733002 L 344.083008 22.007996 L 352.179993 22.007996 L 352.179993 5.467003 L 367.404999 5.467003 L 367.404999 21.936996 L 376.954987 21.936996 L 376.954987 32.664001 L 367.404999 32.664001 L 367.404999 63.737 C 367.404999 66.158997 367.751007 67.612 368.304993 68.235001 C 368.927002 68.858002 370.795013 69.135002 373.910004 69.135002 C 374.394012 69.135002 374.878998 69.135002 375.363007 69.065002 C 375.847992 69.065002 376.401001 68.997002 376.885986 68.927002 L 376.885986 80.415001 L 369.618988 80.761002 C 362.352997 80.969002 357.438995 79.792 354.80899 76.955002 C 353.07901 75.224998 352.178986 72.526001 352.178986 68.789001 L 352.178986 32.734001 L 344.083008 32.734001 Z M 390.173004 6.989998 C 389.757996 6.850998 389.13501 6.781998 388.372986 6.781998 L 387.682007 6.781998 L 387.682007 10.173004 L 388.858002 10.173004 C 389.549988 10.173004 390.104004 10.035004 390.519012 9.758003 C 390.93399 9.481003 391.141998 8.997002 391.141998 8.374001 C 391.141998 7.681999 390.79599 7.196999 390.173004 6.989998 Z M 384.636993 16.332001 L 384.636993 4.706001 L 390.309998 4.706001 C 391.279999 4.776001 391.971008 4.983002 392.593994 5.329002 C 393.631989 5.882004 394.186005 6.781998 394.186005 8.097 C 394.186005 9.066002 393.908997 9.757004 393.355988 10.173004 C 392.802002 10.656998 392.109985 10.864998 391.347992 11.002998 C 392.040985 11.141998 392.662994 11.348999 393.009003 11.695999 C 393.700989 12.249001 394.046997 13.149002 394.046997 14.326004 L 394.046997 15.362999 C 394.046997 15.432999 394.046997 15.570999 394.117004 15.709 C 394.117004 15.848 394.117004 15.917 394.186005 16.055 L 394.324005 16.401001 L 391.417999 16.401001 C 391.347992 16.055 391.278992 15.500999 391.209991 14.809998 C 391.209991 14.117996 391.140015 13.633003 391.002014 13.356003 C 390.880829 12.958374 390.569641 12.647171 390.171997 12.526001 C 389.894989 12.388 389.618011 12.318001 389.134003 12.318001 L 388.510986 12.249001 L 387.888 12.249001 L 387.888 16.332001 L 384.635986 16.332001 Z M 383.045013 4.43 C 381.38501 6.160004 380.553986 8.167 380.553986 10.520004 C 380.553986 12.942001 381.384003 15.017998 383.114014 16.748001 C 384.774994 18.477997 386.851013 19.308998 389.20401 19.308998 C 391.626007 19.308998 393.634003 18.408997 395.294006 16.749001 C 396.954987 15.018997 397.854004 12.942001 397.854004 10.588997 C 397.854004 8.236 397.023987 6.229004 395.364014 4.499001 C 393.701996 2.768997 391.626007 1.869003 389.20401 1.869003 C 386.782013 1.800003 384.774994 2.630997 383.045013 4.43 Z M 396.540009 18.063004 C 394.53299 20.07 392.041992 21.039001 389.20401 21.039001 C 386.227997 21.039001 383.737 20.000999 381.730011 17.994003 C 379.722992 15.987 378.684998 13.496002 378.684998 10.520004 C 378.684998 7.474998 379.791992 4.914001 381.937988 2.907997 C 384.014008 0.970001 386.436005 0.07 389.13501 0.07 C 392.041992 0.07 394.463989 1.108002 396.540009 3.183998 C 398.546997 5.191002 399.653992 7.682999 399.653992 10.588997 C 399.723999 13.496002 398.684998 15.987 396.540009 18.063004 Z"/>
    </g>
</svg>
